<svg xmlns="http://www.w3.org/2000/svg" viewBox="0 0 24 24" width="48" height="48">
  <path fill="#4285F4" d="M23.766 12.2764c0-.8902-.0793-1.7558-.2296-2.5904H12.21v4.9062h6.4795c-.2795 1.5003-1.1346 2.7683-2.4221 3.634v3.0292h3.8902c2.2796-2.0991 3.6084-5.1926 3.6084-8.979z"/>
  <path fill="#34A853" d="M12.21 24.0013c3.2594 0 5.9896-1.0828 7.9818-2.9259l-3.8902-3.0292c-1.0828.728-2.4683 1.1552-4.0916 1.1552-3.138 0-5.795-2.1198-6.7458-4.9658H1.402v3.1302C3.3942 21.2959 7.5594 24.0013 12.21 24.0013z"/>
  <path fill="#FBBC05" d="M5.4642 14.2356c-.2421-.728-.3795-1.5066-.3795-2.3143 0-.8076.1374-1.5862.3795-2.3142V6.4769H1.402C.5166 8.2398 0 10.232 0 12.2764s.5166 4.0366 1.402 5.7995l3.0622-3.8403z"/>
  <path fill="#EA4335" d="M12.21 4.7987c1.7774 0 3.372.6116 4.6313 1.821l3.4406-3.4406C18.2058 1.2959 15.4756 0 12.21 0 7.5594 0 3.3942 2.7054 1.402 6.4769l4.0622 3.1302c.9508-2.846 3.6078-4.9658 6.7458-4.9658z"/>
</svg>
